<svg xmlns="http://www.w3.org/2000/svg" xmlns:xlink="http://www.w3.org/1999/xlink" width="100" height="100" viewBox="0 0 100 100">
  <defs>
    <clipPath id="clip-path">
      <rect id="Rectangle_1977" data-name="Rectangle 1977" width="100" height="100" transform="translate(1052 2425)" fill="#f4f4f4"/>
    </clipPath>
  </defs>
  <g id="Mask_Group_23" data-name="Mask Group 23" transform="translate(-1052 -2425)" clip-path="url(#clip-path)">
    <g id="data-collection" transform="translate(1063 2435)">
      <path id="Path_3536" data-name="Path 3536" d="M40.42,56.456V67.262L8,57.807V47Z" transform="translate(-1.246 12.436)" fill="#001acb"/>
      <path id="Path_3537" data-name="Path 3537" d="M64.42,47V57.807L32,67.262V56.456Z" transform="translate(7.174 12.436)" fill="#05f"/>
      <path id="Path_3538" data-name="Path 3538" d="M40.42,40l32.42,9.456L40.42,58.911,8,49.456Z" transform="translate(-1.246 9.98)" fill="#a0aeff"/>
      <path id="Path_3539" data-name="Path 3539" d="M31,23h2.7V56.77H31Z" transform="translate(6.823 4.016)" fill="#ffdc1c"/>
      <path id="Path_3540" data-name="Path 3540" d="M33.651,51.561,27.293,45.2l1.91-1.91,4.448,4.448L38.1,43.293l1.91,1.91Z" transform="translate(5.522 11.135)" fill="#ffdc1c"/>
      <path id="Path_3541" data-name="Path 3541" d="M43.651,41.561,37.293,35.2l1.91-1.91,4.448,4.448L48.1,33.293l1.91,1.91Z" transform="translate(9.03 7.627)" fill="#ffab00"/>
      <path id="Path_3542" data-name="Path 3542" d="M43.7,43.262H41v-5.4A6.762,6.762,0,0,1,47.754,31.1h4.052a4.057,4.057,0,0,0,4.052-4.052V23h2.7v4.052a6.762,6.762,0,0,1-6.754,6.754H47.754A4.057,4.057,0,0,0,43.7,37.859Z" transform="translate(10.331 4.016)" fill="#ffab00"/>
      <path id="Path_3543" data-name="Path 3543" d="M23.651,41.561,17.293,35.2l1.91-1.91,4.448,4.448L28.1,33.293l1.91,1.91Z" transform="translate(2.014 7.627)" fill="#ffab00"/>
      <path id="Path_3544" data-name="Path 3544" d="M27.561,43.262h-2.7v-5.4a4.057,4.057,0,0,0-4.052-4.052H16.754A6.762,6.762,0,0,1,10,27.052V23h2.7v4.052A4.057,4.057,0,0,0,16.754,31.1h4.052a6.762,6.762,0,0,1,6.754,6.754Z" transform="translate(-0.544 4.016)" fill="#ffab00"/>
      <path id="Path_3545" data-name="Path 3545" d="M45,32.718V3H58.508l8.1,8.1V32.718Z" transform="translate(11.734 -3)" fill="#05f"/>
      <path id="Path_3546" data-name="Path 3546" d="M63.1,11.1H55V3Z" transform="translate(15.242 -3)" fill="#001acb"/>
      <path id="Path_3547" data-name="Path 3547" d="M24,32.718V3H37.508l8.1,8.1V32.718Z" transform="translate(4.367 -3)" fill="#05f"/>
      <path id="Path_3548" data-name="Path 3548" d="M3,32.718V3H16.508l8.1,8.1V32.718Z" transform="translate(-3 -3)" fill="#05f"/>
      <path id="Path_3549" data-name="Path 3549" d="M42.1,11.1H34V3Z" transform="translate(7.875 -3)" fill="#001acb"/>
      <path id="Path_3550" data-name="Path 3550" d="M21.1,11.1H13V3Z" transform="translate(0.508 -3)" fill="#001acb"/>
      <g id="Group_4394" data-name="Group 4394" transform="translate(4.052 6.754)">
        <path id="Path_3551" data-name="Path 3551" d="M27,12H40.508v2.7H27Z" transform="translate(1.367 -6.597)" fill="#a0aeff"/>
        <path id="Path_3552" data-name="Path 3552" d="M27,16H40.508v2.7H27Z" transform="translate(1.367 -5.193)" fill="#a0aeff"/>
        <path id="Path_3553" data-name="Path 3553" d="M27,8h5.4v2.7H27Z" transform="translate(1.367 -8)" fill="#a0aeff"/>
        <path id="Path_3554" data-name="Path 3554" d="M6,12H19.508v2.7H6Z" transform="translate(-6 -6.597)" fill="#a0aeff"/>
        <path id="Path_3555" data-name="Path 3555" d="M6,16H19.508v2.7H6Z" transform="translate(-6 -5.193)" fill="#a0aeff"/>
        <path id="Path_3556" data-name="Path 3556" d="M6,20H19.508v2.7H6Z" transform="translate(-6 -3.79)" fill="#a0aeff"/>
        <path id="Path_3557" data-name="Path 3557" d="M6,8h5.4v2.7H6Z" transform="translate(-6 -8)" fill="#a0aeff"/>
        <path id="Path_3558" data-name="Path 3558" d="M48,12H61.508v2.7H48Z" transform="translate(8.734 -6.597)" fill="#a0aeff"/>
        <path id="Path_3559" data-name="Path 3559" d="M48,16H61.508v2.7H48Z" transform="translate(8.734 -5.193)" fill="#a0aeff"/>
        <path id="Path_3560" data-name="Path 3560" d="M48,20H61.508v2.7H48Z" transform="translate(8.734 -3.79)" fill="#a0aeff"/>
        <path id="Path_3561" data-name="Path 3561" d="M48,8h5.4v2.7H48Z" transform="translate(8.734 -8)" fill="#a0aeff"/>
        <path id="Path_3562" data-name="Path 3562" d="M27,20h2.7v2.7H27Z" transform="translate(1.367 -3.79)" fill="#a0aeff"/>
        <path id="Path_3563" data-name="Path 3563" d="M31,20h2.7v2.7H31Z" transform="translate(2.77 -3.79)" fill="#a0aeff"/>
        <path id="Path_3564" data-name="Path 3564" d="M35,20h2.7v2.7H35Z" transform="translate(4.174 -3.79)" fill="#a0aeff"/>
      </g>
    </g>
  </g>
</svg>
