<svg xmlns="http://www.w3.org/2000/svg" xmlns:xlink="http://www.w3.org/1999/xlink" width="100" height="100" viewBox="0 0 100 100">
  <defs>
    <clipPath id="clip-path">
      <rect id="Rectangle_1978" data-name="Rectangle 1978" width="100" height="100" transform="translate(708 2213)" fill="#f4f4f4"/>
    </clipPath>
  </defs>
  <g id="Mask_Group_22" data-name="Mask Group 22" transform="translate(-708 -2213)" clip-path="url(#clip-path)">
    <g id="_02_Website_Optimization" data-name="02 Website Optimization" transform="translate(700 2205)">
      <rect id="Rectangle_1970" data-name="Rectangle 1970" width="78" height="78" transform="translate(19 19)" fill="#a0aeff"/>
      <rect id="Rectangle_1971" data-name="Rectangle 1971" width="78" height="17" transform="translate(19 19)" fill="#05f"/>
      <path id="Path_3521" data-name="Path 3521" d="M52.462,103.911a10.326,10.326,0,1,1,20.652,0H98.1V96.947L88.94,94.77l-5.2-9.054,2.72-9.045L74.43,69.707l-6.445,6.869H57.59L51.145,69.69,39.113,76.654l2.677,9.062-5.2,9.054L27.47,96.947v6.964Z" transform="translate(-1.096 -6.69)" fill="#ffab00"/>
      <path id="Path_3522" data-name="Path 3522" d="M48.347,103.911a10.377,10.377,0,1,1,20.754,0H94.216V96.947l-9.2-2.176-5.223-9.054,2.734-9.045L70.432,69.707l-6.486,6.869H53.5L47.032,69.69,34.94,76.654l2.725,9.062L32.442,94.77l-9.2,2.176v6.964Z" transform="translate(-0.549 -6.69)" fill="#ffdc1c"/>
      <circle id="Ellipse_21" data-name="Ellipse 21" cx="2.612" cy="2.612" r="2.612" transform="translate(22.691 25.094)" fill="#a0aeff"/>
      <circle id="Ellipse_22" data-name="Ellipse 22" cx="2.612" cy="2.612" r="2.612" transform="translate(30.526 25.094)" fill="#a0aeff"/>
      <circle id="Ellipse_23" data-name="Ellipse 23" cx="2.612" cy="2.612" r="2.612" transform="translate(38.361 25.094)" fill="#a0aeff"/>
      <path id="Path_3523" data-name="Path 3523" d="M19,39l78,4.328V39Z" transform="translate(0 -3)" fill="#001acb"/>
    </g>
  </g>
</svg>
